<mxfile host="app.diagrams.net" modified="2024-03-06T16:49:03.387Z" agent="Mozilla/5.0 (Windows NT 10.0; Win64; x64) AppleWebKit/537.36 (KHTML, like Gecko) Chrome/122.0.0.0 Safari/537.36 Edg/122.0.0.0" etag="JuMiAyNliIycSM6pRiSQ" version="23.1.7" type="google">
  <diagram id="R2lEEEUBdFMjLlhIrx00" name="Page-1">
    <mxGraphModel grid="1" page="1" gridSize="10" guides="1" tooltips="1" connect="1" arrows="1" fold="1" pageScale="1" pageWidth="850" pageHeight="1100" math="0" shadow="0" extFonts="Permanent Marker^https://fonts.googleapis.com/css?family=Permanent+Marker">
      <root>
        <mxCell id="0" />
        <mxCell id="1" parent="0" />
        <mxCell id="mALQML_e7b65MymtvW4y-107" value="MARKET" style="swimlane;fontStyle=0;childLayout=stackLayout;horizontal=1;startSize=26;horizontalStack=0;resizeParent=1;resizeParentMax=0;resizeLast=0;collapsible=1;marginBottom=0;align=center;fontSize=14;" vertex="1" parent="1">
          <mxGeometry x="10" y="310" width="210" height="90" as="geometry" />
        </mxCell>
        <mxCell id="mALQML_e7b65MymtvW4y-109" value="MARKET_ID: INT&lt;br&gt;MARKET_NAME: VARCHAR(50)" style="text;strokeColor=none;fillColor=none;spacingLeft=4;spacingRight=4;overflow=hidden;rotatable=0;points=[[0,0.5],[1,0.5]];portConstraint=eastwest;fontSize=12;whiteSpace=wrap;html=1;" vertex="1" parent="mALQML_e7b65MymtvW4y-107">
          <mxGeometry y="26" width="210" height="64" as="geometry" />
        </mxCell>
        <mxCell id="mALQML_e7b65MymtvW4y-111" value="PUBLISHER" style="swimlane;fontStyle=0;childLayout=stackLayout;horizontal=1;startSize=26;horizontalStack=0;resizeParent=1;resizeParentMax=0;resizeLast=0;collapsible=1;marginBottom=0;align=center;fontSize=14;" vertex="1" parent="1">
          <mxGeometry x="255" y="110" width="220" height="140" as="geometry" />
        </mxCell>
        <mxCell id="mALQML_e7b65MymtvW4y-112" value="PUBLISHER_ID: INT&lt;br&gt;PUBLISHER_NAME: VARCHAR(50)" style="text;strokeColor=none;fillColor=none;spacingLeft=4;spacingRight=4;overflow=hidden;rotatable=0;points=[[0,0.5],[1,0.5]];portConstraint=eastwest;fontSize=12;whiteSpace=wrap;html=1;" vertex="1" parent="mALQML_e7b65MymtvW4y-111">
          <mxGeometry y="26" width="220" height="114" as="geometry" />
        </mxCell>
        <mxCell id="mALQML_e7b65MymtvW4y-115" value="SALES_RANK" style="swimlane;fontStyle=0;childLayout=stackLayout;horizontal=1;startSize=26;horizontalStack=0;resizeParent=1;resizeParentMax=0;resizeLast=0;collapsible=1;marginBottom=0;align=center;fontSize=14;" vertex="1" parent="1">
          <mxGeometry x="285" y="460" width="190" height="130" as="geometry" />
        </mxCell>
        <mxCell id="mALQML_e7b65MymtvW4y-116" value="RANK_ID: INT&lt;br&gt;ISBN: VARCHAR(13)&lt;br&gt;MARKET_ID: INT&lt;br&gt;RANK_BY_MARKET: INT&lt;br&gt;RANK_POINT: INT&lt;br&gt;UPDATE_DATE: DATETIME" style="text;strokeColor=none;fillColor=none;spacingLeft=4;spacingRight=4;overflow=hidden;rotatable=0;points=[[0,0.5],[1,0.5]];portConstraint=eastwest;fontSize=12;whiteSpace=wrap;html=1;" vertex="1" parent="mALQML_e7b65MymtvW4y-115">
          <mxGeometry y="26" width="190" height="104" as="geometry" />
        </mxCell>
        <mxCell id="mALQML_e7b65MymtvW4y-119" value="BOOKS" style="swimlane;fontStyle=0;childLayout=stackLayout;horizontal=1;startSize=26;horizontalStack=0;resizeParent=1;resizeParentMax=0;resizeLast=0;collapsible=1;marginBottom=0;align=center;fontSize=14;" vertex="1" parent="1">
          <mxGeometry x="540" y="275" width="160" height="160" as="geometry" />
        </mxCell>
        <mxCell id="mALQML_e7b65MymtvW4y-120" value="ISBN: VARCHAR(13)&lt;div&gt;TITLE: VARCHAR(50)&lt;/div&gt;&lt;div&gt;AUTHOR_ID: INT&lt;/div&gt;&lt;div&gt;PUBLISHER_ID: INT&lt;/div&gt;&lt;div&gt;PRICE: INT&lt;/div&gt;" style="text;strokeColor=none;fillColor=none;spacingLeft=4;spacingRight=4;overflow=hidden;rotatable=0;points=[[0,0.5],[1,0.5]];portConstraint=eastwest;fontSize=12;whiteSpace=wrap;html=1;" vertex="1" parent="mALQML_e7b65MymtvW4y-119">
          <mxGeometry y="26" width="160" height="134" as="geometry" />
        </mxCell>
        <mxCell id="mALQML_e7b65MymtvW4y-123" value="AUTHORS" style="swimlane;fontStyle=0;childLayout=stackLayout;horizontal=1;startSize=26;horizontalStack=0;resizeParent=1;resizeParentMax=0;resizeLast=0;collapsible=1;marginBottom=0;align=center;fontSize=14;" vertex="1" parent="1">
          <mxGeometry x="560" y="520" width="210" height="110" as="geometry" />
        </mxCell>
        <mxCell id="mALQML_e7b65MymtvW4y-124" value="AUTHOR_ID: INT&lt;br&gt;AUTHOR_NAME: VARCHAR(50)&lt;div&gt;AUTHOR_DETAIL: VARCHAR(200)&lt;/div&gt;" style="text;strokeColor=none;fillColor=none;spacingLeft=4;spacingRight=4;overflow=hidden;rotatable=0;points=[[0,0.5],[1,0.5]];portConstraint=eastwest;fontSize=12;whiteSpace=wrap;html=1;" vertex="1" parent="mALQML_e7b65MymtvW4y-123">
          <mxGeometry y="26" width="210" height="84" as="geometry" />
        </mxCell>
        <mxCell id="mALQML_e7b65MymtvW4y-130" value="" style="edgeStyle=entityRelationEdgeStyle;fontSize=12;html=1;endArrow=ERoneToMany;startArrow=ERmandOne;rounded=0;exitX=1.006;exitY=0.745;exitDx=0;exitDy=0;exitPerimeter=0;entryX=0;entryY=0.5;entryDx=0;entryDy=0;" edge="1" parent="1" source="mALQML_e7b65MymtvW4y-109" target="mALQML_e7b65MymtvW4y-116">
          <mxGeometry width="100" height="100" relative="1" as="geometry">
            <mxPoint x="460" y="520" as="sourcePoint" />
            <mxPoint x="560" y="420" as="targetPoint" />
          </mxGeometry>
        </mxCell>
        <mxCell id="mALQML_e7b65MymtvW4y-131" value="" style="edgeStyle=entityRelationEdgeStyle;fontSize=12;html=1;endArrow=ERzeroToMany;startArrow=ERmandOne;rounded=0;entryX=-0.003;entryY=0.206;entryDx=0;entryDy=0;entryPerimeter=0;exitX=0.998;exitY=0.411;exitDx=0;exitDy=0;exitPerimeter=0;" edge="1" parent="1" source="mALQML_e7b65MymtvW4y-112" target="mALQML_e7b65MymtvW4y-120">
          <mxGeometry width="100" height="100" relative="1" as="geometry">
            <mxPoint x="460" y="520" as="sourcePoint" />
            <mxPoint x="560" y="420" as="targetPoint" />
          </mxGeometry>
        </mxCell>
        <mxCell id="mALQML_e7b65MymtvW4y-132" value="" style="edgeStyle=entityRelationEdgeStyle;fontSize=12;html=1;endArrow=ERoneToMany;startArrow=ERmandOne;rounded=0;entryX=1;entryY=0.5;entryDx=0;entryDy=0;exitX=-0.014;exitY=0.424;exitDx=0;exitDy=0;exitPerimeter=0;" edge="1" parent="1" source="mALQML_e7b65MymtvW4y-120" target="mALQML_e7b65MymtvW4y-116">
          <mxGeometry width="100" height="100" relative="1" as="geometry">
            <mxPoint x="630" y="300" as="sourcePoint" />
            <mxPoint x="560" y="420" as="targetPoint" />
          </mxGeometry>
        </mxCell>
        <mxCell id="_przw2jOM8xvnyCFOc0H-1" value="" style="edgeStyle=orthogonalEdgeStyle;fontSize=12;html=1;endArrow=ERoneToMany;startArrow=ERmandOne;rounded=0;exitX=1.019;exitY=0.336;exitDx=0;exitDy=0;exitPerimeter=0;entryX=1;entryY=0.5;entryDx=0;entryDy=0;" edge="1" parent="1" source="mALQML_e7b65MymtvW4y-120" target="mALQML_e7b65MymtvW4y-124">
          <mxGeometry width="100" height="100" relative="1" as="geometry">
            <mxPoint x="470" y="720" as="sourcePoint" />
            <mxPoint x="830" y="460" as="targetPoint" />
            <Array as="points">
              <mxPoint x="810" y="346" />
              <mxPoint x="810" y="588" />
            </Array>
          </mxGeometry>
        </mxCell>
      </root>
    </mxGraphModel>
  </diagram>
</mxfile>
